<svg xmlns="http://www.w3.org/2000/svg" viewBox="0 0 1200 600">
  <rect width="1200" height="600" fill="#c00"/>
  <g fill="#ff0">
    <path d="M200 37.5l-8.4 26h-27.3l22 16-8.3 25.8 22-16 22 16-8.4-25.9 22-16h-27.2zm0 13.5l5.4 16.6h17.4l-14 10.2 5.3 16.6L200 84.2l-14.1 10.2 5.4-16.6-14.1-10.2h17.4zM139.8 173.2l18.7 18.7 17.6-17.4c26.7 28.6 54.8 56.2 81.4 85A10.2 10.2 0 0 0 272 245c-28.5-26.9-57-54-85.6-80.8l23.7-23.5-33-4.6z"/>
    <path d="M200 112.5a84 84 0 0 1 44 71.7 40.8 40.8 0 0 1-71 27.2l-4.1 3.5a6.2 6.2 0 0 0-7 1.7 7.7 7.7 0 0 0-6.3 5.2 26.6 26.6 0 0 1-15.1 13.3 1.3 1.3 0 0 0-.2.1 24.5 24.5 0 0 0-8.7 5.8c-5.1 5.1-7.6 11.7-6.2 16.4a3.9 3.9 0 0 0 5.2 4.8c4.7 1 11-1.6 16-6.5a24 24 0 0 0 5.8-9.4 26.2 26.2 0 0 1 13.5-14.9 2.6 2.6 0 0 0 .4-.2 7.7 7.7 0 0 0 4.2-5.1 54.1 54.1 0 0 0 40 18.9c29.6.6 51.6-21 52.6-52.2a81.3 81.3 0 0 0-19.4-52.5 87 87 0 0 0-43.7-27.8z"/>
  </g>
</svg>
