<svg xmlns="http://www.w3.org/2000/svg" viewBox="0 0 800 480">
  <g fill="#fff">
    <path d="M132 32.8h2.4l1.8 5 1.7-5h2.4v7.6h-1.6V35l-2 5.4h-1.2l-2-5.4v5.4H132zm10.4 0h5.2v1.5h-3.5v1.6h3.4v1.3H144V39h3.7v1.4h-5.4zm7.1 0h2l3.1 5.3v-5.3h1.7v7.6h-2.1l-3-5.2v5.2h-1.7zm10.1 1.5h-2.2v-1.5h6.1v1.5h-2.2v6.1h-1.7zm4.4 2.3a4.2 4.2 0 0 1 8.3 0 4.2 4.2 0 0 1-8.4 0zm6.4 0a2.3 2.3 0 1 0-4.6 0 2.3 2.3 0 1 0 4.6 0zm3.6-3.8h2.7c1.6 0 3 .7 3 2.3a2.1 2.1 0 0 1-1.6 2.1l1.8 3.2h-2l-1.5-3h-.7v3H174zm2.5 3.4c.7 0 1.4-.2 1.4-1s-.6-1-1.2-1h-1v2zm6.1-1.9h-2.2v-1.5h6v1.5h-2.1v6.1h-1.7zm5-1.5h1.7v7.6h-1.7zm3.8 0h3c2 0 4 1 4 3.8 0 2.7-2 3.8-4.1 3.8h-2.9zm2.7 6.2c1.3 0 2.5-.5 2.5-2.4 0-2-1.2-2.4-2.5-2.4h-1V39zm-62.2 31.8h2.4l1.8 5 1.8-5h2.3v7.6h-1.6V73l-2 5.4h-1.1l-2-5.4v5.4h-1.6zm10.4 0h5.3v1.5H144v1.6h3.3v1.3H144V77h3.7v1.4h-5.5zm7.2 0h2.8c2.2 0 4.2 1 4.2 3.8 0 2.7-2.1 3.8-4.2 3.8h-2.8zM152 77c1.3 0 2.6-.5 2.6-2.4 0-2-1.3-2.4-2.6-2.4h-1V77zm6.2-6.2h1.7v7.6h-1.7zm3.8 0h5.3v1.5h-3.6v1.6h3.4v1.3h-3.4V77h3.7v1.4H162zm6.4 6.6l1.2-1.2a2.3 2.3 0 0 0 1.8 1c.5 0 1.1-.3 1.1-1 0-.5-.5-.7-1.6-1-1-.3-2.1-.7-2.1-2.1 0-1.7 1.4-2.4 2.8-2.4a3.4 3.4 0 0 1 2.7 1.1l-1.1 1.1a2 2 0 0 0-1.6-.8c-.6 0-1.2.2-1.2.8 0 .5.6.7 1.6 1 1 .2 2.3.7 2.3 2.2 0 1.8-1.4 2.5-3 2.5a4 4 0 0 1-3-1.2zm7.6-6.6h2.6c1.8 0 3 .8 3 2.3 0 1.6-1.2 2.5-3 2.5h-1v2.8H176zm2.4 3.4c.9 0 1.4-.3 1.4-1 0-.6-.4-1-1.3-1h-.8v2zm4.6-3.4h5.3v1.5h-3.6v1.6h3.4v1.3h-3.4V77h3.7v1.4H183zm6.4 6.6l1.2-1.2a2.3 2.3 0 0 0 1.8 1c.5 0 1.1-.3 1.1-1 0-.5-.5-.7-1.6-1-1-.3-2.1-.7-2.1-2.1 0-1.7 1.4-2.4 2.8-2.4a3.4 3.4 0 0 1 2.7 1.1l-1.1 1.1a2 2 0 0 0-1.6-.8c-.6 0-1.2.2-1.2.8 0 .5.6.7 1.6 1 1 .2 2.3.7 2.3 2.2 0 1.8-1.4 2.5-3 2.5a4 4 0 0 1-3-1.2zm7.2.1a1.1 1.1 0 0 1 1.2-1.1 1 1 0 0 1 1 1 1.1 1.1 0 0 1-2.2 0zm295.3 68.3h2.4l1.8 5 1.8-5h2.3v7.6h-1.6V148l-2 5.4h-1.1l-2-5.4v5.4h-1.6zm10.4 0h5.3v1.5H504v1.6h3.3v1.3H504v1.8h3.7v1.4h-5.5zm7.2 0h2.8c2.2 0 4.2 1 4.2 3.8 0 2.7-2.1 3.8-4.2 3.8h-2.8zm2.6 6.2c1.3 0 2.6-.5 2.6-2.4 0-2-1.3-2.4-2.6-2.4h-1v4.8zm6.1-6.2h1.7v7.6h-1.7zm3.8 0h5.3v1.5h-3.6v1.6h3.4v1.3h-3.4v1.8h3.7v1.4H522zm6.4 6.6l1.2-1.2a2.3 2.3 0 0 0 1.8 1c.5 0 1.1-.3 1.1-1 0-.5-.5-.7-1.6-1-1-.3-2.1-.7-2.1-2.1 0-1.7 1.4-2.4 2.8-2.4a3.4 3.4 0 0 1 2.7 1.1l-1.1 1.1a2 2 0 0 0-1.6-.8c-.6 0-1.2.2-1.2.8 0 .5.6.7 1.6 1 1 .2 2.3.7 2.3 2.2 0 1.8-1.4 2.5-3 2.5a4 4 0 0 1-3-1.2zm7.6-6.6h2.6c1.8 0 3 .8 3 2.3 0 1.6-1.2 2.5-3 2.5h-1v2.8H536zm2.4 3.4c.9 0 1.4-.3 1.4-1 0-.6-.4-1-1.3-1h-.8v2zm4.6-3.4h5.3v1.5h-3.6v1.6h3.4v1.3h-3.4v1.8h3.7v1.4H543zm6.4 6.6l1.2-1.2a2.3 2.3 0 0 0 1.8 1c.5 0 1.1-.3 1.1-1 0-.5-.5-.7-1.6-1-1-.3-2.1-.7-2.1-2.1 0-1.7 1.4-2.4 2.8-2.4a3.4 3.4 0 0 1 2.7 1.1l-1.1 1.1a2 2 0 0 0-1.6-.8c-.6 0-1.2.2-1.2.8 0 .5.6.7 1.6 1 1 .2 2.3.7 2.3 2.2 0 1.8-1.4 2.5-3 2.5a4 4 0 0 1-3-1.2zm7.2.1a1.1 1.1 0 0 1 1.2-1.1 1 1 0 0 1 1 1 1.1 1.1 0 0 1-2.2 0zM135.4 122.4l1.2-1.2a2.3 2.3 0 0 0 1.9 1c.5 0 1.1-.3 1.1-1 0-.5-.5-.7-1.6-1-1.1-.3-2.2-.7-2.2-2.1 0-1.7 1.5-2.4 2.9-2.4a3.4 3.4 0 0 1 2.7 1.1l-1.2 1.1a2 2 0 0 0-1.6-.8c-.5 0-1.1.2-1.1.8 0 .5.5.7 1.6 1 1 .2 2.3.7 2.3 2.2 0 1.8-1.4 2.5-3 2.5a4 4 0 0 1-3-1.2zm8.7-5.1H142v-1.5h6.1v1.5h-2.2v6.1h-1.7zm4.9 3.3v-4.8h1.8v4.7a1.5 1.5 0 1 0 3 0v-4.7h1.6v4.8a3.2 3.2 0 0 1-6.3 0zm8.5-4.8h2.8c2.2 0 4.2 1 4.2 3.8 0 2.7-2 3.8-4.2 3.8h-2.8zm2.6 6.2c1.3 0 2.6-.5 2.6-2.4 0-2-1.3-2.4-2.6-2.4h-1v4.8zm6.1-6.2h1.7v7.6h-1.7zm3.8 0h5.3v1.5h-3.6v1.6h3.4v1.3h-3.4v1.8h3.8v1.4H170zm8.3 1.5h-2.2v-1.5h6.2v1.5H180v6.1h-1.8zm5.1-1.5h1.7v7.6h-1.7zm3.8 0h2.9c2.1 0 4.2 1 4.2 3.8 0 2.7-2.1 3.8-4.3 3.8h-2.8zm2.6 6.2c1.3 0 2.6-.5 2.6-2.4 0-2-1.2-2.4-2.6-2.4h-.9v4.8zM375.4 197.4l1.2-1.2a2.3 2.3 0 0 0 1.9 1c.5 0 1.1-.3 1.1-1 0-.5-.5-.7-1.6-1-1.1-.3-2.2-.7-2.2-2.1 0-1.7 1.5-2.4 2.9-2.4a3.4 3.4 0 0 1 2.7 1.1l-1.2 1.1a2 2 0 0 0-1.6-.8c-.5 0-1.1.2-1.1.8 0 .5.5.7 1.6 1 1 .2 2.3.7 2.3 2.2 0 1.8-1.4 2.5-3 2.5a4 4 0 0 1-3-1.2zm8.7-5.1H382v-1.5h6.1v1.5h-2.2v6.1h-1.7zm4.9 3.3v-4.8h1.8v4.7a1.5 1.5 0 1 0 3 0v-4.7h1.6v4.8a3.2 3.2 0 0 1-6.3 0zm8.5-4.8h2.8c2.2 0 4.2 1 4.2 3.8 0 2.7-2 3.8-4.2 3.8h-2.8zm2.6 6.2c1.3 0 2.6-.5 2.6-2.4 0-2-1.3-2.4-2.6-2.4h-1v4.8zm6.1-6.2h1.7v7.6h-1.7zm3.8 0h5.3v1.5h-3.6v1.6h3.4v1.3h-3.4v1.8h3.8v1.4H410zm8.3 1.5h-2.2v-1.5h6.2v1.5H420v6.1h-1.8zm5.1-1.5h1.7v7.6h-1.7zm3.8 0h2.9c2.1 0 4.2 1 4.2 3.8 0 2.7-2.1 3.8-4.3 3.8h-2.8zm2.6 6.2c1.3 0 2.6-.5 2.6-2.4 0-2-1.2-2.4-2.6-2.4h-.9v4.8zM495.4 429.4l1.2-1.2a2.3 2.3 0 0 0 1.9 1c.5 0 1.1-.3 1.1-1 0-.5-.5-.7-1.6-1-1.1-.3-2.2-.7-2.2-2.1 0-1.7 1.5-2.4 2.9-2.4a3.4 3.4 0 0 1 2.7 1.1l-1.2 1.1a2 2 0 0 0-1.6-.8c-.5 0-1.1.2-1.1.8s.5.7 1.6 1c1 .2 2.3.7 2.3 2.2 0 1.8-1.4 2.5-3 2.5a4 4 0 0 1-3-1.2zm8.7-5.1H502v-1.5h6.1v1.5h-2.2v6.1h-1.7zm4.9 3.3v-4.8h1.8v4.7a1.5 1.5 0 1 0 3 0v-4.7h1.6v4.8a3.2 3.2 0 0 1-6.3 0zm8.5-4.8h2.8c2.2 0 4.2 1 4.2 3.8 0 2.7-2 3.8-4.2 3.8h-2.8zm2.6 6.2c1.3 0 2.6-.5 2.6-2.4 0-2-1.3-2.4-2.6-2.4h-1v4.8zm6.1-6.2h1.7v7.6h-1.7zm3.8 0h5.3v1.5h-3.6v1.6h3.4v1.3h-3.4v1.8h3.8v1.4H530zm8.3 1.5h-2.2v-1.5h6.2v1.5H540v6.1h-1.8zm5.1-1.5h1.7v7.6h-1.7zm3.8 0h2.9c2.1 0 4.2 1 4.2 3.8 0 2.7-2.1 3.8-4.3 3.8h-2.8zm2.6 6.2c1.3 0 2.6-.5 2.6-2.4 0-2-1.2-2.4-2.6-2.4h-.9v4.8zM495.4 197.4l1.2-1.2a2.3 2.3 0 0 0 1.9 1c.5 0 1.1-.3 1.1-1 0-.5-.5-.7-1.6-1-1.1-.3-2.2-.7-2.2-2.1 0-1.7 1.5-2.4 2.9-2.4a3.4 3.4 0 0 1 2.7 1.1l-1.2 1.1a2 2 0 0 0-1.6-.8c-.5 0-1.1.2-1.1.8 0 .5.5.7 1.6 1 1 .2 2.3.7 2.3 2.2 0 1.8-1.4 2.5-3 2.5a4 4 0 0 1-3-1.2zm8.7-5.1H502v-1.5h6.1v1.5h-2.2v6.1h-1.7zm4.9 3.3v-4.8h1.8v4.7a1.5 1.5 0 1 0 3 0v-4.7h1.6v4.8a3.2 3.2 0 0 1-6.3 0zm8.5-4.8h2.8c2.2 0 4.2 1 4.2 3.8 0 2.7-2 3.8-4.2 3.8h-2.8zm2.6 6.2c1.3 0 2.6-.5 2.6-2.4 0-2-1.3-2.4-2.6-2.4h-1v4.8zm6.1-6.2h1.7v7.6h-1.7zm3.8 0h5.3v1.5h-3.6v1.6h3.4v1.3h-3.4v1.8h3.8v1.4H530zm8.3 1.5h-2.2v-1.5h6.2v1.5H540v6.1h-1.8zm5.1-1.5h1.7v7.6h-1.7zm3.8 0h2.9c2.1 0 4.2 1 4.2 3.8 0 2.7-2.1 3.8-4.3 3.8h-2.8zm2.6 6.2c1.3 0 2.6-.5 2.6-2.4 0-2-1.2-2.4-2.6-2.4h-.9v4.8zM615.4 174.4l1.2-1.2a2.3 2.3 0 0 0 1.9 1c.5 0 1.1-.3 1.1-1 0-.5-.5-.7-1.6-1-1.1-.3-2.2-.7-2.2-2.1 0-1.7 1.5-2.4 2.9-2.4a3.4 3.4 0 0 1 2.7 1.1l-1.2 1.1a2 2 0 0 0-1.6-.8c-.5 0-1.1.2-1.1.8 0 .5.5.7 1.6 1 1 .2 2.3.7 2.3 2.2 0 1.8-1.4 2.5-3 2.5a4 4 0 0 1-3-1.2zm8.7-5.1H622v-1.5h6.1v1.5h-2.2v6.1h-1.7zm4.9 3.3v-4.8h1.8v4.7a1.5 1.5 0 1 0 3 0v-4.7h1.6v4.8a3.2 3.2 0 0 1-6.3 0zm8.5-4.8h2.8c2.2 0 4.2 1 4.2 3.8 0 2.7-2 3.8-4.2 3.8h-2.8zm2.6 6.2c1.3 0 2.6-.5 2.6-2.4 0-2-1.3-2.4-2.6-2.4h-1v4.8zm6.1-6.2h1.7v7.6h-1.7zm3.8 0h5.3v1.5h-3.6v1.6h3.4v1.3h-3.4v1.8h3.8v1.4H650zm8.3 1.5h-2.2v-1.5h6.2v1.5H660v6.1h-1.8zm5.1-1.5h1.7v7.6h-1.7zm3.8 0h2.9c2.1 0 4.2 1 4.2 3.8 0 2.7-2.1 3.8-4.3 3.8h-2.8zm2.6 6.2c1.3 0 2.6-.5 2.6-2.4 0-2-1.2-2.4-2.6-2.4h-.9v4.8zM495.4 309.4l1.2-1.2a2.3 2.3 0 0 0 1.9 1c.5 0 1.1-.3 1.1-1 0-.5-.5-.7-1.6-1-1.1-.3-2.2-.7-2.2-2.1 0-1.7 1.5-2.4 2.9-2.4a3.4 3.4 0 0 1 2.7 1.1l-1.2 1.1a2 2 0 0 0-1.6-.8c-.5 0-1.1.2-1.1.8s.5.7 1.6 1c1 .2 2.3.7 2.3 2.2 0 1.8-1.4 2.5-3 2.5a4 4 0 0 1-3-1.2zm8.7-5.1H502v-1.5h6.1v1.5h-2.2v6.1h-1.7zm4.9 3.3v-4.8h1.8v4.7a1.5 1.5 0 1 0 3 0v-4.7h1.6v4.8a3.2 3.2 0 0 1-6.3 0zm8.5-4.8h2.8c2.2 0 4.2 1 4.2 3.8 0 2.7-2 3.8-4.2 3.8h-2.8zm2.6 6.2c1.3 0 2.6-.5 2.6-2.4 0-2-1.3-2.4-2.6-2.4h-1v4.8zm6.1-6.2h1.7v7.6h-1.7zm3.8 0h5.3v1.5h-3.6v1.6h3.4v1.3h-3.4v1.8h3.8v1.4H530zm8.3 1.5h-2.2v-1.5h6.2v1.5H540v6.1h-1.8zm5.1-1.5h1.7v7.6h-1.7zm3.8 0h2.9c2.1 0 4.2 1 4.2 3.8 0 2.7-2.1 3.8-4.3 3.8h-2.8zm2.6 6.2c1.3 0 2.6-.5 2.6-2.4 0-2-1.2-2.4-2.6-2.4h-.9v4.8zM619.5 302.8h1.7v3h3.1v-3h1.7v7.6h-1.7v-3.2h-3.1v3.2h-1.7zm8.7 0h1.7v7.6h-1.7zm3 6.6l1.2-1.2a2.3 2.3 0 0 0 1.9 1c.5 0 1.1-.3 1.1-1 0-.5-.5-.7-1.6-1-1-.3-2.2-.7-2.2-2.1 0-1.7 1.5-2.4 2.9-2.4a3.4 3.4 0 0 1 2.7 1.1l-1.2 1.1a2 2 0 0 0-1.5-.8c-.6 0-1.2.2-1.2.8s.6.7 1.6 1c1 .2 2.3.7 2.3 2.2 0 1.8-1.4 2.5-3 2.5a4 4 0 0 1-3-1.2zm8.8-5.1h-2.3v-1.5h6.1v1.5h-2.2v6.1H640zm4.3 2.3a4.2 4.2 0 0 1 8.3 0 4.2 4.2 0 0 1-8.3 0zm6.4 0a2.3 2.3 0 1 0-2.3 2.5 2.3 2.3 0 0 0 2.3-2.5zm3.6-3.8h2.7c1.6 0 3 .7 3 2.3a2.1 2.1 0 0 1-1.5 2.1l1.8 3.2h-2l-1.6-3h-.7v3h-1.7zm2.6 3.4c.6 0 1.3-.2 1.3-1s-.6-1-1.2-1h-1v2zm4.8-3.4h1.7v7.6h-1.7zm3.8 0h5.3v1.5h-3.6v1.6h3.4v1.3h-3.4v1.8h3.7v1.4h-5.4zM255.4 167.4l1.2-1.2a2.3 2.3 0 0 0 1.9 1c.5 0 1.1-.3 1.1-1 0-.5-.5-.7-1.6-1-1.1-.3-2.2-.7-2.2-2.1 0-1.7 1.5-2.4 2.9-2.4a3.4 3.4 0 0 1 2.7 1.1l-1.2 1.1a2 2 0 0 0-1.6-.8c-.5 0-1.1.2-1.1.8 0 .5.5.7 1.6 1 1 .2 2.3.7 2.3 2.2 0 1.8-1.4 2.5-3 2.5a4 4 0 0 1-3-1.2zm8.7-5.1H262v-1.5h6.1v1.5h-2.2v6.1h-1.7zm4.9 3.3v-4.8h1.8v4.7a1.5 1.5 0 1 0 3 0v-4.7h1.6v4.8a3.2 3.2 0 0 1-6.3 0zm8.5-4.8h2.8c2.2 0 4.2 1 4.2 3.8 0 2.7-2 3.8-4.2 3.8h-2.8zm2.6 6.2c1.3 0 2.6-.5 2.6-2.4 0-2-1.3-2.4-2.6-2.4h-1v4.8zm6.1-6.2h1.7v7.6h-1.7zm3.8 0h5.3v1.5h-3.6v1.6h3.4v1.3h-3.4v1.8h3.8v1.4H290zm8.3 1.5h-2.2v-1.5h6.2v1.5H300v6.1h-1.8zm5.1-1.5h1.7v7.6h-1.7zm3.8 0h2.9c2.1 0 4.2 1 4.2 3.8 0 2.7-2.1 3.8-4.3 3.8h-2.8zm2.6 6.2c1.3 0 2.6-.5 2.6-2.4 0-2-1.2-2.4-2.6-2.4h-.9v4.8zM255.4 310.4l1.2-1.2a2.3 2.3 0 0 0 1.9 1c.5 0 1.1-.3 1.1-1 0-.5-.5-.7-1.6-1-1.1-.3-2.2-.7-2.2-2.1 0-1.7 1.5-2.4 2.9-2.4a3.4 3.4 0 0 1 2.7 1.1l-1.2 1.1a2 2 0 0 0-1.6-.8c-.5 0-1.1.2-1.1.8s.5.7 1.6 1c1 .2 2.3.7 2.3 2.2 0 1.8-1.4 2.5-3 2.5a4 4 0 0 1-3-1.2zm8.7-5.1H262v-1.5h6.1v1.5h-2.2v6.1h-1.7zm4.9 3.3v-4.8h1.8v4.7a1.5 1.5 0 1 0 3 0v-4.7h1.6v4.8a3.2 3.2 0 0 1-6.3 0zm8.5-4.8h2.8c2.2 0 4.2 1 4.2 3.8 0 2.7-2 3.8-4.2 3.8h-2.8zm2.6 6.2c1.3 0 2.6-.5 2.6-2.4 0-2-1.3-2.4-2.6-2.4h-1v4.8zm6.1-6.2h1.7v7.6h-1.7zm3.8 0h5.3v1.5h-3.6v1.6h3.4v1.3h-3.4v1.8h3.8v1.4H290zm8.3 1.5h-2.2v-1.5h6.2v1.5H300v6.1h-1.8zm5.1-1.5h1.7v7.6h-1.7zm3.8 0h2.9c2.1 0 4.2 1 4.2 3.8 0 2.7-2.1 3.8-4.3 3.8h-2.8zm2.6 6.2c1.3 0 2.6-.5 2.6-2.4 0-2-1.2-2.4-2.6-2.4h-.9v4.8zM375.4 407.4l1.2-1.2a2.3 2.3 0 0 0 1.9 1c.5 0 1.1-.3 1.1-1 0-.5-.5-.7-1.6-1-1.1-.3-2.2-.7-2.2-2.1 0-1.7 1.5-2.4 2.9-2.4a3.4 3.4 0 0 1 2.7 1.1l-1.2 1.1a2 2 0 0 0-1.6-.8c-.5 0-1.1.2-1.1.8s.5.7 1.6 1c1 .2 2.3.7 2.3 2.2 0 1.8-1.4 2.5-3 2.5a4 4 0 0 1-3-1.2zm8.7-5.1H382v-1.5h6.1v1.5h-2.2v6.1h-1.7zm4.9 3.3v-4.8h1.8v4.7a1.5 1.5 0 1 0 3 0v-4.7h1.6v4.8a3.2 3.2 0 0 1-6.3 0zm8.5-4.8h2.8c2.2 0 4.2 1 4.2 3.8 0 2.7-2 3.8-4.2 3.8h-2.8zm2.6 6.2c1.3 0 2.6-.5 2.6-2.4 0-2-1.3-2.4-2.6-2.4h-1v4.8zm6.1-6.2h1.7v7.6h-1.7zm3.8 0h5.3v1.5h-3.6v1.6h3.4v1.3h-3.4v1.8h3.8v1.4H410zm8.3 1.5h-2.2v-1.5h6.2v1.5H420v6.1h-1.8zm5.1-1.5h1.7v7.6h-1.7zm3.8 0h2.9c2.1 0 4.2 1 4.2 3.8 0 2.7-2.1 3.8-4.3 3.8h-2.8zm2.6 6.2c1.3 0 2.6-.5 2.6-2.4 0-2-1.2-2.4-2.6-2.4h-.9v4.8zM385.7 303.8h2l3 5.3h.1v-5.3h1.7v7.6h-2.1l-3-5.2v5.2h-1.7zm8.4 3.8a4.2 4.2 0 0 1 8.4 0 4.2 4.2 0 0 1-8.4 0zm6.5 0a2.3 2.3 0 1 0-2.3 2.5 2.3 2.3 0 0 0 2.3-2.5zm3.6-3.8h2.7c1.6 0 3 .7 3 2.3a2.1 2.1 0 0 1-1.6 2.1l1.8 3.2h-2l-1.5-3h-.7v3h-1.7zm2.5 3.4c.7 0 1.4-.2 1.4-1s-.6-1-1.3-1h-1v2zm4.1 3.2l1.2-1.2a2.3 2.3 0 0 0 1.8 1c.6 0 1.2-.3 1.2-1 0-.5-.6-.7-1.7-1-1-.3-2-.7-2-2.1 0-1.7 1.4-2.4 2.8-2.4a3.4 3.4 0 0 1 2.7 1.1l-1.2 1.1a2 2 0 0 0-1.6-.8c-.5 0-1.1.2-1.1.8s.5.7 1.5 1c1.1.2 2.4.7 2.4 2.2 0 1.8-1.5 2.5-3 2.5a4 4 0 0 1-3-1.2zm7.7-6.6h1.7v3.2l2.8-3.2h2.2l-3.4 3.6 3.6 4h-2.3l-3-3.5v3.5h-1.6zM265.7 62.8h2l3 5.3h.1v-5.3h1.7v7.6h-2.1l-3-5.2v5.2h-1.7zm8.4 3.8a4.2 4.2 0 0 1 8.4 0 4.2 4.2 0 0 1-8.4 0zm6.5 0a2.3 2.3 0 1 0-2.3 2.5 2.3 2.3 0 0 0 2.3-2.5zm3.6-3.8h2.7c1.6 0 3 .7 3 2.3a2.1 2.1 0 0 1-1.6 2.1l1.8 3.2h-2l-1.5-3h-.7v3h-1.7zm2.5 3.4c.7 0 1.4-.2 1.4-1s-.6-1-1.2-1h-1v2zm4.1 3.2l1.2-1.2a2.3 2.3 0 0 0 1.8 1c.6 0 1.2-.3 1.2-1 0-.5-.6-.7-1.7-1-1-.3-2-.7-2-2.1 0-1.7 1.4-2.4 2.8-2.4a3.4 3.4 0 0 1 2.7 1.1l-1.2 1.1a2 2 0 0 0-1.6-.8c-.5 0-1.1.2-1.1.8 0 .5.5.7 1.5 1 1.1.2 2.4.7 2.4 2.2 0 1.8-1.5 2.5-3 2.5a4 4 0 0 1-3-1.2zm7.7-6.6h1.7V66l2.8-3.2h2.2l-3.4 3.6 3.6 4h-2.3l-3-3.5v3.5h-1.6zM484 62.8h1.8V66l2.8-3.2h2.2l-3.4 3.6 3.6 4h-2.3l-3-3.5v3.5H484zm8 0h2.8c1.5 0 2.9.7 2.9 2.3a2.1 2.1 0 0 1-1.5 2.1l1.8 3.2h-2l-1.5-3h-.8v3H492zm2.6 3.4c.6 0 1.3-.2 1.3-1s-.6-1-1.2-1h-1v2zm4.4.4a4.2 4.2 0 0 1 8.3 0 4.2 4.2 0 0 1-8.3 0zm6.5 0a2.3 2.3 0 1 0-2.4 2.5 2.3 2.3 0 0 0 2.4-2.5zm3.5-3.8h2.6c1.8 0 3 .8 3 2.3 0 1.6-1.2 2.5-3 2.5h-1v2.8H509zm2.4 3.4c.9 0 1.4-.3 1.4-1 0-.6-.4-1-1.3-1h-.8v2zm4.6-3.4h2.6c1.8 0 3 .8 3 2.3 0 1.6-1.2 2.5-3 2.5h-1v2.8H516zm2.4 3.4c.9 0 1.4-.3 1.4-1 0-.6-.4-1-1.3-1h-.8v2zm3.8 3.2l1.2-1.2a2.3 2.3 0 0 0 1.9 1c.5 0 1.1-.3 1.1-1 0-.5-.5-.7-1.6-1-1-.3-2.2-.7-2.2-2.1 0-1.7 1.5-2.4 2.9-2.4a3.4 3.4 0 0 1 2.7 1.1l-1.2 1.1a2 2 0 0 0-1.5-.8c-.6 0-1.2.2-1.2.8 0 .5.6.7 1.6 1 1 .2 2.3.7 2.3 2.2 0 1.8-1.4 2.5-3 2.5a4 4 0 0 1-3-1.2zm7.3.9l1-1a4 4 0 0 1-1-2.7 3.9 3.9 0 0 1 4-4 4.6 4.6 0 0 1 2.7.8l1-1 .6.6-1 1a3.9 3.9 0 0 1 1 2.6 4 4 0 0 1-4.2 4 4.3 4.3 0 0 1-2.5-.7l-1 1zm5.6-5.7a2.4 2.4 0 0 0-1.5-.5 2.3 2.3 0 0 0-2.4 2.5 3 3 0 0 0 .4 1.6zm.9 2a2.7 2.7 0 0 0-.4-1.4l-3.4 3.6a2.5 2.5 0 0 0 3.8-2.2zm2.3-3.8h1.8l1.9 5.4 2-5.4h1.8l-3 7.6h-1.6zm8.5 0h1.7v7.6h-1.7zm3.8 0h2l3 5.3h.1v-5.3h1.7v7.6h-2.1l-3-5.2v5.2h-1.7zm8.4 3.8a3.9 3.9 0 0 1 4.2-4 4.4 4.4 0 0 1 3 1L565 65a2.4 2.4 0 0 0-1.8-.8 2.2 2.2 0 0 0-2.3 2.4 2.3 2.3 0 0 0 2.4 2.5 3.4 3.4 0 0 0 1.3-.2v-1.6H563V66h3.3v4a6.7 6.7 0 0 1-3 .6 4 4 0 0 1-4.3-4zM377.5 72.8h2.5c1.9 0 3 .8 3 2.3 0 1.6-1.1 2.5-3 2.5h-.9v2.8h-1.6zm2.4 3.4c.8 0 1.4-.3 1.4-1 0-.6-.4-1-1.3-1h-.9v2zm4.6-3.4h2.7c1.6 0 3 .7 3 2.3a2.1 2.1 0 0 1-1.6 2.1l1.8 3.2h-2l-1.5-3h-.7v3h-1.7zm2.5 3.4c.7 0 1.4-.2 1.4-1s-.6-1-1.2-1h-1v2zm4.5 4.1l1-1a4 4 0 0 1-1-2.7 3.9 3.9 0 0 1 4-4 4.6 4.6 0 0 1 2.7.8l1-1 .6.6-1 1a3.9 3.9 0 0 1 1 2.6 4 4 0 0 1-4.2 4 4.3 4.3 0 0 1-2.5-.7l-1 1zm5.6-5.7a2.4 2.4 0 0 0-1.5-.5 2.3 2.3 0 0 0-2.4 2.5 3 3 0 0 0 .4 1.6zm.9 2a2.7 2.7 0 0 0-.4-1.4l-3.4 3.6a2.5 2.5 0 0 0 3.8-2.2zm2.2-3.8h1.9l1.9 5.4 2-5.4h1.7l-3 7.6h-1.5zm8.6 0h5.2v1.5h-3.5v1.6h3.3v1.3h-3.3V79h3.7v1.4h-5.4zm8.2 1.5h-2v-1.5h6v1.5h-2.1v6.1H417zm5.1-1.5h1.7v7.6h-1.7zm3.9 0h2.8c2.1 0 4.2 1 4.2 3.8 0 2.7-2.1 3.8-4.2 3.8h-2.9zm2.5 6.2c1.4 0 2.6-.5 2.6-2.4 0-2-1.2-2.4-2.6-2.4h-.8V79zM130.2 160.8h2.5l1.7 5 1.8-5h2.3v7.6H137V163l-2 5.4h-1.1l-2-5.4v5.4h-1.6zm10.5 0h5.2v1.5h-3.5v1.6h3.3v1.3h-3.3v1.8h3.7v1.4h-5.4zm7.1 0h2.8c2.2 0 4.2 1 4.2 3.8 0 2.7-2 3.8-4.2 3.8h-2.8zm2.6 6.2c1.3 0 2.6-.5 2.6-2.4 0-2-1.3-2.4-2.6-2.4h-1v4.8zm6.1-6.2h1.7v7.6h-1.7zm3.8 0h5.3v1.5H162v1.6h3.4v1.3H162v1.8h3.8v1.4h-5.5zm6.4 6.6l1.2-1.2a2.3 2.3 0 0 0 1.8 1c.5 0 1.2-.3 1.2-1 0-.5-.6-.7-1.7-1-1-.3-2.1-.7-2.1-2.1 0-1.7 1.4-2.4 2.9-2.4a3.4 3.4 0 0 1 2.7 1.1l-1.2 1.1a2 2 0 0 0-1.6-.8c-.6 0-1.1.2-1.1.8 0 .5.5.7 1.5 1 1 .2 2.3.7 2.3 2.2 0 1.8-1.4 2.5-3 2.5a4 4 0 0 1-3-1.2zm9.8-6.6h1.7l3.2 7.6h-1.9l-.6-1.6h-3.2l-.6 1.6h-1.9zm1.9 4.6l-1.1-2.6-1 2.6zm4.1-4.6h2.4l1.8 5 1.7-5h2.4v7.6h-1.6V163l-2 5.4H186l-1.9-5.4v5.4h-1.6zm10.5 0h5v1.5h-3.4v1.8h3.2v1.4h-3.2v3H193zm5.3 6.7a1.1 1.1 0 0 1 1.1-1.1 1 1 0 0 1 1.2 1 1.1 1.1 0 0 1-2.3 0zM490.2 370.8h2.5l1.7 5 1.8-5h2.3v7.6H497V373l-2 5.4h-1.1l-2-5.4v5.4h-1.6zm10.5 0h5.2v1.5h-3.5v1.6h3.3v1.3h-3.3v1.8h3.7v1.4h-5.4zm7.1 0h2.8c2.2 0 4.2 1 4.2 3.8 0 2.7-2 3.8-4.2 3.8h-2.8zm2.6 6.2c1.3 0 2.6-.5 2.6-2.4 0-2-1.3-2.4-2.6-2.4h-1v4.8zm6.1-6.2h1.7v7.6h-1.7zm3.8 0h5.3v1.5H522v1.6h3.4v1.3H522v1.8h3.8v1.4h-5.5zm6.4 6.6l1.2-1.2a2.3 2.3 0 0 0 1.8 1c.5 0 1.2-.3 1.2-1 0-.5-.6-.7-1.7-1-1-.3-2.1-.7-2.1-2.1 0-1.7 1.4-2.4 2.9-2.4a3.4 3.4 0 0 1 2.7 1.1l-1.2 1.1a2 2 0 0 0-1.6-.8c-.6 0-1.1.2-1.1.8s.5.7 1.5 1c1 .2 2.3.7 2.3 2.2 0 1.8-1.4 2.5-3 2.5a4 4 0 0 1-3-1.2zm9.8-6.6h1.7l3.2 7.6h-1.9l-.6-1.6h-3.2l-.6 1.6h-1.9zm1.9 4.6l-1.1-2.6-1 2.6zm4.1-4.6h2.4l1.8 5 1.7-5h2.4v7.6h-1.6V373l-2 5.4H546l-1.9-5.4v5.4h-1.6zm10.5 0h5v1.5h-3.4v1.8h3.2v1.4h-3.2v3H553zm5.3 6.7a1.1 1.1 0 0 1 1.1-1.1 1.1 1.1 0 0 1 1.2 1 1.1 1.1 0 0 1-2.3 0zM135.4 204.4l1.2-1.2a2.3 2.3 0 0 0 1.9 1c.5 0 1.1-.3 1.1-1 0-.5-.5-.7-1.6-1-1.1-.3-2.2-.7-2.2-2.1 0-1.7 1.5-2.4 2.9-2.4a3.4 3.4 0 0 1 2.7 1.1l-1.2 1.1a2 2 0 0 0-1.6-.8c-.5 0-1.1.2-1.1.8 0 .5.5.7 1.6 1 1 .2 2.3.7 2.3 2.2 0 1.8-1.4 2.5-3 2.5a4 4 0 0 1-3-1.2zm8.7-5.1H142v-1.5h6.1v1.5h-2.2v6.1h-1.7zm4.9 3.3v-4.8h1.8v4.7a1.5 1.5 0 1 0 3 0v-4.7h1.6v4.8a3.2 3.2 0 0 1-6.3 0zm8.5-4.8h2.8c2.2 0 4.2 1 4.2 3.8 0 2.7-2 3.8-4.2 3.8h-2.8zm2.6 6.2c1.3 0 2.6-.5 2.6-2.4 0-2-1.3-2.4-2.6-2.4h-1v4.8zm6.1-6.2h1.7v7.6h-1.7zm3.8 0h5.3v1.5h-3.6v1.6h3.4v1.3h-3.4v1.8h3.8v1.4H170zm8.3 1.5h-2.2v-1.5h6.2v1.5H180v6.1h-1.8zm5.1-1.5h1.7v7.6h-1.7zm3.8 0h2.9c2.1 0 4.2 1 4.2 3.8 0 2.7-2.1 3.8-4.3 3.8h-2.8zm2.6 6.2c1.3 0 2.6-.5 2.6-2.4 0-2-1.2-2.4-2.6-2.4h-.9v4.8zM139 325.8h2.5l1.7 5 1.8-5h2.3v7.6h-1.6V328l-2 5.4h-1.1l-2-5.4v5.4H139zm10.5 0h5.2v1.5h-3.5v1.6h3.3v1.3h-3.3v1.8h3.7v1.4h-5.4zm7.1 0h2.8c2.2 0 4.2 1 4.2 3.8 0 2.7-2 3.8-4.2 3.8h-2.8zm2.6 6.2c1.3 0 2.6-.5 2.6-2.4 0-2-1.3-2.4-2.6-2.4h-1v4.8zm6.1-6.2h1.7v7.6h-1.7zm3.8 0h5.3v1.5h-3.6v1.6h3.4v1.3h-3.4v1.8h3.8v1.4H169zm7.1 4.8v-4.8h1.7v4.7a1.5 1.5 0 1 0 3 0v-4.7h1.6v4.8a3.2 3.2 0 0 1-6.3 0zm9.6-3.3h-2.2v-1.5h6.1v1.5h-2.2v6.1h-1.7zm3.7 5.2a1.1 1.1 0 0 1 1.1-1.1 1.1 1.1 0 0 1 1.2 1 1.1 1.1 0 0 1-2.3 0zM379 145.8h2.5l1.7 5 1.8-5h2.3v7.6h-1.6V148l-2 5.4h-1.1l-2-5.4v5.4H379zm10.5 0h5.2v1.5h-3.5v1.6h3.3v1.3h-3.3v1.8h3.7v1.4h-5.4zm7.1 0h2.8c2.2 0 4.2 1 4.2 3.8 0 2.7-2 3.8-4.2 3.8h-2.8zm2.6 6.2c1.3 0 2.6-.5 2.6-2.4 0-2-1.3-2.4-2.6-2.4h-1v4.8zm6.1-6.2h1.7v7.6h-1.7zm3.8 0h5.3v1.5h-3.6v1.6h3.4v1.3h-3.4v1.8h3.8v1.4H409zm7.1 4.8v-4.8h1.7v4.7a1.5 1.5 0 1 0 3 0v-4.7h1.6v4.8a3.2 3.2 0 0 1-6.3 0zm9.6-3.3h-2.2v-1.5h6.1v1.5h-2.2v6.1h-1.7zm3.7 5.2a1.1 1.1 0 0 1 1.1-1.1 1.1 1.1 0 0 1 1.2 1 1.1 1.1 0 0 1-2.3 0zM114.3 407.8h2.8c1.5 0 2.8.7 2.8 2.3a2.1 2.1 0 0 1-1.4 2.1l1.8 3.2h-2l-1.6-3h-.7v3h-1.7zm2.6 3.4c.6 0 1.3-.2 1.3-1s-.6-1-1.2-1h-1v2zm4.8-3.4h5.2v1.5h-3.5v1.6h3.4v1.3h-3.4v1.8h3.7v1.4h-5.4zm7.1 0h1.7v6.1h3.1v1.5h-4.8zm6.1 0h1.7v7.6h-1.7zm3.4 3.8a3.9 3.9 0 0 1 4.1-4 4.4 4.4 0 0 1 3 1l-1.1 1.4a2.4 2.4 0 0 0-1.9-.8 2.2 2.2 0 0 0-2.3 2.4 2.3 2.3 0 0 0 2.4 2.5 3.4 3.4 0 0 0 1.3-.2v-1.6h-1.5V411h3.2v4a6.7 6.7 0 0 1-3 .6 4 4 0 0 1-4.2-4zm9-3.8h1.7v7.6h-1.7zm3.4 3.8a4.2 4.2 0 0 1 8.4 0 4.2 4.2 0 0 1-8.4 0zm6.5 0a2.3 2.3 0 1 0-2.3 2.5 2.3 2.3 0 0 0 2.3-2.5zm3.5-3.8h2.1l3 5.3v-5.3h1.7v7.6h-2l-3.1-5.2v5.2h-1.7zm11.8 5.6a2.3 2.3 0 0 1 1.5-2.2 2.2 2.2 0 0 1-.7-1.6 2 2 0 0 1 2.3-2 2 2 0 0 1 2.2 2 2.2 2.2 0 0 1-1.4 2l1 1 .6-1.1h1.8l-1.4 2.1 1.8 1.8H178l-.6-.6a3 3 0 0 1-2.2.8 2.4 2.4 0 0 1-2.7-2.2zm3.9.4l-1.5-1.5a1.1 1.1 0 0 0-.7 1 1 1 0 0 0 1 1 1.5 1.5 0 0 0 1.2-.5zm0-4.2a.7.7 0 0 0-.8-.6.7.7 0 0 0-.6.6 1.5 1.5 0 0 0 .5 1c.6-.3.8-.6.8-1zm8.3-1.8h5.3v1.5h-3.6v1.6h3.4v1.3h-3.4v1.8h3.7v1.4h-5.4zm8.3 1.5h-2.2v-1.5h6.2v1.5h-2.3v6.1H193zm5-1.5h1.8v7.6H198zm3.9 0h1.7v3.2l2.8-3.2h2.3l-3.4 3.6 3.6 4h-2.3l-3-3.5v3.5H202zm8 0h1.7v3.2l2.8-3.2h2.2l-3.4 3.6 3.6 4h-2.3l-2.9-3.5v3.5h-1.7zM253 407.4l1.2-1.2a2.3 2.3 0 0 0 1.9 1c.5 0 1.1-.3 1.1-1 0-.5-.5-.7-1.6-1-1-.3-2.1-.7-2.1-2.1 0-1.7 1.4-2.4 2.8-2.4a3.4 3.4 0 0 1 2.7 1.1l-1.1 1.1a2 2 0 0 0-1.6-.8c-.6 0-1.2.2-1.2.8s.6.7 1.6 1c1 .2 2.3.7 2.3 2.2 0 1.8-1.4 2.5-3 2.5a4 4 0 0 1-3-1.2zm7.2-2.8a4.2 4.2 0 0 1 8.4 0 4.2 4.2 0 0 1-8.4 0zm6.5 0a2.3 2.3 0 1 0-2.3 2.5 2.3 2.3 0 0 0 2.3-2.5zm2.8 2.8l1.2-1.2a2.3 2.3 0 0 0 1.8 1c.6 0 1.2-.3 1.2-1 0-.5-.6-.7-1.6-1-1.1-.3-2.2-.7-2.2-2.1 0-1.7 1.5-2.4 2.9-2.4a3.4 3.4 0 0 1 2.7 1.1l-1.2 1.1a2 2 0 0 0-1.6-.8c-.5 0-1.1.2-1.1.8s.5.7 1.5 1c1.1.2 2.4.7 2.4 2.2 0 1.8-1.5 2.5-3 2.5a4 4 0 0 1-3-1.2zm7.7-6.6h1.7v7.6h-1.7zm3.3 3.8a4.2 4.2 0 0 1 8.4 0 4.2 4.2 0 0 1-8.4 0zm6.5 0a2.3 2.3 0 1 0-2.3 2.5 2.3 2.3 0 0 0 2.3-2.5zm3.6-3.8h1.7v6.1h3v1.5h-4.7zm5.2 3.8a4.2 4.2 0 0 1 8.4 0 4.2 4.2 0 0 1-8.4 0zm6.5 0a2.3 2.3 0 1 0-2.3 2.5 2.3 2.3 0 0 0 2.3-2.5zm3.1 0a3.9 3.9 0 0 1 4.2-4 4.4 4.4 0 0 1 3 1l-1.2 1.4a2.4 2.4 0 0 0-1.8-.8 2.2 2.2 0 0 0-2.3 2.4 2.3 2.3 0 0 0 2.4 2.5 3.4 3.4 0 0 0 1.3-.2v-1.6h-1.6V404h3.3v4a6.7 6.7 0 0 1-3 .6 4 4 0 0 1-4.3-4zm9.1-3.8h1.7v7.6h-1.7zM613 77.4l1.2-1.2a2.3 2.3 0 0 0 1.9 1c.5 0 1.1-.3 1.1-1 0-.5-.5-.7-1.6-1-1-.3-2.1-.7-2.1-2.1 0-1.7 1.4-2.4 2.8-2.4a3.4 3.4 0 0 1 2.7 1.1l-1.1 1.1a2 2 0 0 0-1.6-.8c-.6 0-1.2.2-1.2.8 0 .5.6.7 1.6 1 1 .2 2.3.7 2.3 2.2 0 1.8-1.4 2.5-3 2.5a4 4 0 0 1-3-1.2zm7.2-2.8a4.2 4.2 0 0 1 8.4 0 4.2 4.2 0 0 1-8.4 0zm6.5 0a2.3 2.3 0 1 0-2.3 2.5 2.3 2.3 0 0 0 2.3-2.5zm2.8 2.8l1.2-1.2a2.3 2.3 0 0 0 1.8 1c.6 0 1.2-.3 1.2-1 0-.5-.6-.7-1.6-1-1.1-.3-2.2-.7-2.2-2.1 0-1.7 1.5-2.4 2.9-2.4a3.4 3.4 0 0 1 2.7 1.1l-1.2 1.1a2 2 0 0 0-1.6-.8c-.5 0-1.1.2-1.1.8 0 .5.5.7 1.5 1 1.1.2 2.4.7 2.4 2.2 0 1.8-1.5 2.5-3 2.5a4 4 0 0 1-3-1.2zm7.7-6.6h1.7v7.6h-1.7zm3.3 3.8a4.2 4.2 0 0 1 8.4 0 4.2 4.2 0 0 1-8.4 0zm6.5 0a2.3 2.3 0 1 0-2.3 2.5 2.3 2.3 0 0 0 2.3-2.5zm3.6-3.8h1.7V77h3v1.5h-4.7zm5.2 3.8a4.2 4.2 0 0 1 8.4 0 4.2 4.2 0 0 1-8.4 0zm6.5 0a2.3 2.3 0 1 0-2.3 2.5 2.3 2.3 0 0 0 2.3-2.5zm3.1 0a3.9 3.9 0 0 1 4.2-4 4.4 4.4 0 0 1 3 1l-1.2 1.4a2.4 2.4 0 0 0-1.8-.8 2.2 2.2 0 0 0-2.3 2.4 2.3 2.3 0 0 0 2.4 2.5 3.4 3.4 0 0 0 1.3-.2v-1.6h-1.6V74h3.3v4a6.7 6.7 0 0 1-3 .6 4 4 0 0 1-4.3-4zm9.1-3.8h1.7v7.6h-1.7zM144.7 280.8h1.7l3.3 7.6h-2l-.6-1.6H144l-.7 1.6h-1.8zm1.9 4.6l-1-2.6-1.1 2.6zm4.1-4.6h1.7v3.2l2.8-3.2h2.3l-3.4 3.6 3.5 4h-2.3l-2.9-3.5v3.5h-1.7z"/>
    <path d="M160.8 280.8h1.6l3.3 7.6h-2l-.6-1.6H160l-.7 1.6h-1.8zm1.8 4.6l-1-2.6-1 2.6zm3.6-1.1h3.4v1.4h-3.4zm5.8-2h-2.2v-1.5h6.1v1.5h-2.2v6.1H172zm5-1.5h1.7v7.6H177zm3.9 0h2.8c2.2 0 4.2 1 4.2 3.8 0 2.7-2 3.8-4.2 3.8h-2.8zm2.6 6.2c1.3 0 2.6-.5 2.6-2.4 0-2-1.3-2.4-2.6-2.4h-1v4.8z"/>
  </g>
  <g fill="none" stroke="#fff" stroke-miterlimit="10" stroke-width="6">
    <rect width="120" height="30" x="105" y="22"/>
    <rect width="120" height="30" x="105" y="187"/>
    <rect width="120" height="45" x="105" y="52"/>
    <rect width="120" height="45" x="465" y="127"/>
    <rect width="120" height="45" x="105" y="97"/>
    <rect width="120" height="45" x="345" y="172"/>
    <rect width="120" height="60" x="465" y="397"/>
    <rect width="120" height="45" x="465" y="172"/>
    <rect width="120" height="90" x="585" y="127"/>
    <rect width="120" height="90" x="465" y="262"/>
    <rect width="120" height="90" x="585" y="262"/>
    <rect width="120" height="105" x="225" y="112"/>
    <rect width="120" height="90" x="225" y="262"/>
    <rect width="120" height="105" x="345" y="352"/>
    <rect width="120" height="90" x="345" y="262"/>
    <rect width="120" height="90" x="225" y="22"/>
    <rect width="120" height="90" x="465" y="22"/>
    <rect width="120" height="105" x="345" y="22"/>
    <rect width="120" height="45" x="105" y="142"/>
    <rect width="120" height="45" x="465" y="352"/>
    <rect width="120" height="45" x="105" y="307"/>
    <rect width="120" height="45" x="345" y="127"/>
    <rect width="120" height="90" x="105" y="367"/>
    <rect width="120" height="105" x="225" y="352"/>
    <rect width="120" height="105" x="585" y="22"/>
    <rect width="120" height="45" x="105" y="262"/>
  </g>
</svg>
