<svg xmlns="http://www.w3.org/2000/svg" viewBox="0 0 800 480">
  <g fill="#fff">
    <path d="M191.2 217.8l11-12.2 25.3 8v-25.2l-4.9-2.4-7.4 8.6-18.7-7.2v-35.8L221 141l23.8 7-8.7 12.1-21.7-6v23.4l4.4 2.2 8.6-9.7 18 7.7v38.1l-25.3 11.5zM256.6 222v-47l-5-2.7 8.6-12.3 13.2 4.5v48.1l4.9 2-7.8 12.6zm-1.2-67.1l5.5-14 15.8 5.6-5.5 13.5zM283.7 243.7l4.6-13.3 20.4 2.5-.9-6.1v-7.2l-8 7.6-16-6.7V170l20.8-9.9 20 8v58.6l1.1 7.6-10.6 5.4-8.6 6.8zm24.1-34.2v-31.3l-4.9-2.7-2.4 1.2v33.1l5 1.7zM334.1 221.2V170L355 160l20 8v44.6l5 2-8.6 12.6-15.6-6.2-5.6 6.2zm24.1-11.7v-31.3l-4.9-2.7-2.4 1.2v33.1l5 1.7zM385.6 220v-45l-5-2.7 8.6-12.3 13.2 4.5v3.7l11.3-8.2 7.9 24.6-11.9 9.5-5.3-16.9-2 1.2v31l16.8 4.9-8.3 13zM427.6 218.7v-49.2l19-9.5 18.3 9v25.7l-20.5 9.9v3.4l19.5 6.2-7.5 13zm21.7-26v-15l-3.8-2.2-1.1.4v19zM473.9 222v-50h-4.2v-9.6h4.2v-19.2l16.8-2.3v21.5h4.8v9.6h-4.8v40.6l4.8 2-7.7 12.6z"/>
    <path d="M499.6 222v-50h-4.2v-9.6h4.2v-19.2l16.8-2.3v21.5h4.8v9.6h-4.8v40.6l4.8 2-7.7 12.6zM526.6 218.7v-49.2l19-9.5 18.3 9v25.7l-20.5 9.9v3.4l19.5 6.2-7.5 13zm21.7-26v-15l-3.8-2.2-1.1.4v19zM573.1 220v-45l-5-2.7 8.6-12.3 13.2 4.5v3.7l11.3-8.2 8 24.6-12 9.5-5.2-16.9-2 1.2v31l16.7 4.9-8.2 13zM257.8 326h-21l-19.5-29.5h-.5V326h-21v-60.3h21l19.6 30.3h.4v-30.3h21zM294.4 326h-21.7v-60.3h21.7zM371.1 326h-25.4l-15.4-25v25h-21v-60.3h21v25.7l14.7-25.7h24L349 295zM409.2 328.3c-19 0-34.4-14.3-34.4-32.4s15.4-32.5 34.4-32.5 34.2 14.4 34.2 32.5-15.3 32.4-34.2 32.4zm0-46.8c-6.5 0-12.6 5.4-12.6 14.4s6 14.3 12.6 14.3c6.4 0 12.4-5.3 12.4-14.3s-6-14.4-12.4-14.4zM497.2 284.3h-13V326h-20.8v-41.7h-13v-18.6h46.8zM528.2 326h-21.7v-60.3h21.7zM605.1 326h-21l-19.5-29.5h-.5V326h-21v-60.3h21l19.5 30.3h.5v-30.3h21z"/>
  </g>
  <rect width="560" height="280" x="120" y="100" fill="none" stroke="red" stroke-width="30"/>
</svg>
