<svg xmlns="http://www.w3.org/2000/svg" viewBox="0 0 800 480">
  <g fill="#c00">
    <path d="M207.4 194.2l59.7 60 56.3-55.8c85.7 91.6 175.5 180 260.5 272a32.8 32.8 0 0 0 46.6-46.2c-91.3-85.9-182.8-172.4-274-258.6l75.8-75.1-105.5-14.6z"/>
    <path d="M400 0a276 276 0 0 1 108.4 108.6c22.3 42 32.1 85.8 32.3 120.8a130 130 0 0 1-130.3 130 130.2 130.2 0 0 1-96.9-43l-13.2 11.2a19.7 19.7 0 0 0-22 5.6A24.7 24.7 0 0 0 258 350a85 85 0 0 1-48.4 42.6 4.2 4.2 0 0 0-.6.2 78.4 78.4 0 0 0-27.8 18.3c-16.4 16.6-24.5 37.7-20 52.6a12.4 12.4 0 0 0 16.8 15.3c14.9 3.4 35-4.8 50.8-20.7 9-9 15.7-19.6 19-30a83.9 83.9 0 0 1 43.1-47.6 8.4 8.4 0 0 0 1.2-.7 24.7 24.7 0 0 0 13.4-16.5A173.2 173.2 0 0 0 433.8 424c94.4 2.2 165-67.2 168.3-166.9 1.6-50.2-17.9-114.9-62.2-168A278.1 278.1 0 0 0 400 0z"/>
  </g>
</svg>
